<svg width="1260" height="863" viewBox="0 0 1260 863" fill="none" xmlns="http://www.w3.org/2000/svg">
<path d="M28.579 -175H-64V-78.2351M28.579 -175V-78.2351M28.579 -175H121.158M-64 -78.2351H28.579M-64 -78.2351V18.5284M28.579 -78.2351H121.158M28.579 -78.2351V18.5284M121.158 -175V-78.2351M121.158 -175H213.737M121.158 -78.2351H213.737M121.158 -78.2351V18.5284M28.579 18.5284H-64M28.579 18.5284H121.158M28.579 18.5284V115.293M-64 18.5284V115.293M213.737 -175V-78.2351M213.737 -175H306.316M213.737 -78.2351H306.316M213.737 -78.2351V18.5284M121.158 18.5284H213.737M121.158 18.5284V115.293M306.316 -175V-78.2351M306.316 -175H398.895M306.316 -78.2351H398.895M306.316 -78.2351V18.5284M213.737 18.5284H306.316M213.737 18.5284V115.293M398.895 -175V-78.2351M398.895 -175H491.474M398.895 -78.2351H491.474M398.895 -78.2351V18.5284M306.316 18.5284H398.895M306.316 18.5284V115.293M491.474 -175V-78.2351M491.474 -175H584.053M491.474 -78.2351H584.053M491.474 -78.2351V18.5284M398.895 18.5284H491.474M398.895 18.5284V115.293M584.053 -175V-78.2351M584.053 -175H676.632M584.053 -78.2351H676.632M584.053 -78.2351V18.5284M491.474 18.5284H584.053M491.474 18.5284V115.293M676.632 -175V-78.2351M676.632 -175H769.211M676.632 -78.2351H769.211M676.632 -78.2351V18.5284M584.053 18.5284H676.632M584.053 18.5284V115.293M769.211 -175V-78.2351M769.211 -175H861.79M769.211 -78.2351H861.79M769.211 -78.2351V18.5284M676.632 18.5284H769.211M676.632 18.5284V115.293M861.79 -175V-78.2351M861.79 -175H954.37M861.79 -78.2351H954.37M861.79 -78.2351V18.5284M769.211 18.5284H861.79M769.211 18.5284V115.293M954.37 -175V-78.2351M954.37 -175H1046.95M954.37 -78.2351H1046.95M954.37 -78.2351V18.5284M861.79 18.5284H954.37M861.79 18.5284V115.293M1046.95 -175V-78.2351M1046.95 -175H1139.53M1046.95 -78.2351H1139.53M1046.95 -78.2351V18.5284M954.37 18.5284H1046.95M954.37 18.5284V115.293M1139.53 -175V-78.2351M1139.53 -175H1232.11M1139.53 -78.2351H1232.11M1139.53 -78.2351V18.5284M1046.95 18.5284H1139.53M1046.95 18.5284V115.293M1232.11 -175V-78.2351M1232.11 -175H1324.69V-78.2351M1232.11 -78.2351H1324.69M1232.11 -78.2351V18.5284M1139.53 18.5284H1232.11M1139.53 18.5284V115.293M1324.69 -78.2351V18.5284M1232.11 18.5284H1324.69M1232.11 18.5284V115.293M1324.69 18.5284V115.293M28.579 115.293H-64M28.579 115.293H121.158M28.579 115.293V212.057M-64 115.293V212.057M121.158 115.293H213.737M121.158 115.293V212.057M213.737 115.293H306.316M213.737 115.293V212.057M306.316 115.293H398.895M306.316 115.293V212.057M398.895 115.293H491.474M398.895 115.293V212.057M491.474 115.293H584.053M491.474 115.293V212.057M584.053 115.293H676.632M584.053 115.293V212.057M676.632 115.293H769.211M676.632 115.293V212.057M769.211 115.293H861.79M769.211 115.293V212.057M861.79 115.293H954.37M861.79 115.293V212.057M954.37 115.293H1046.95M954.37 115.293V212.057M1046.95 115.293H1139.53M1046.95 115.293V212.057M1139.53 115.293H1232.11M1139.53 115.293V212.057M1232.11 115.293H1324.69M1232.11 115.293V212.057M1324.69 115.293V212.057M28.579 212.057H-64M28.579 212.057H121.158M28.579 212.057V308.822M-64 212.057V308.822M121.158 212.057H213.737M121.158 212.057V308.822M213.737 212.057H306.316M213.737 212.057V308.822M306.316 212.057H398.895M306.316 212.057V308.822M398.895 212.057H491.474M398.895 212.057V308.822M491.474 212.057H584.053M491.474 212.057V308.822M584.053 212.057H676.632M584.053 212.057V308.822M676.632 212.057H769.211M676.632 212.057V308.822M769.211 212.057H861.79M769.211 212.057V308.822M861.79 212.057H954.37M861.79 212.057V308.822M954.37 212.057H1046.95M954.37 212.057V308.822M1046.95 212.057H1139.53M1046.95 212.057V308.822M1139.53 212.057H1232.11M1139.53 212.057V308.822M1232.11 212.057H1324.69M1232.11 212.057V308.822M1324.69 212.057V308.822M28.579 308.822H-64M28.579 308.822H121.158M28.579 308.822V405.587M-64 308.822V405.587M121.158 308.822H213.737M121.158 308.822V405.587M213.737 308.822H306.316M213.737 308.822V405.587M306.316 308.822H398.895M306.316 308.822V405.587M398.895 308.822H491.474M398.895 308.822V405.587M491.474 308.822H584.053M491.474 308.822V405.587M584.053 308.822H676.632M584.053 308.822V405.587M676.632 308.822H769.211M676.632 308.822V405.587M769.211 308.822H861.79M769.211 308.822V405.587M861.79 308.822H954.37M861.79 308.822V405.587M954.37 308.822H1046.95M954.37 308.822V405.587M1046.95 308.822H1139.53M1046.95 308.822V405.587M1139.53 308.822H1232.11M1139.53 308.822V405.587M1232.11 308.822H1324.69M1232.11 308.822V405.587M1324.69 308.822V405.587M28.579 405.587H-64M28.579 405.587H121.158M28.579 405.587V502.35M-64 405.587V502.35M121.158 405.587H213.737M121.158 405.587V502.35M213.737 405.587H306.316M213.737 405.587V502.35M306.316 405.587H398.895M306.316 405.587V502.35M398.895 405.587H491.474M398.895 405.587V502.35M491.474 405.587H584.053M491.474 405.587V502.35M584.053 405.587H676.632M584.053 405.587V502.35M676.632 405.587H769.211M676.632 405.587V502.35M769.211 405.587H861.79M769.211 405.587V502.35M861.79 405.587H954.37M861.79 405.587V502.35M954.37 405.587H1046.95M954.37 405.587V502.35M1046.95 405.587H1139.53M1046.95 405.587V502.35M1139.53 405.587H1232.11M1139.53 405.587V502.35M1232.11 405.587H1324.69M1232.11 405.587V502.35M1324.69 405.587V502.35M28.579 502.35H-64M28.579 502.35H121.158M28.579 502.35V599.115M-64 502.35V599.115M121.158 502.35H213.737M121.158 502.35V599.115M213.737 502.35H306.316M213.737 502.35V599.115M306.316 502.35H398.895M306.316 502.35V599.115M398.895 502.35H491.474M398.895 502.35V599.115M491.474 502.35H584.053M491.474 502.35V599.115M584.053 502.35H676.632M584.053 502.35V599.115M676.632 502.35H769.211M676.632 502.35V599.115M769.211 502.35H861.79M769.211 502.35V599.115M861.79 502.35H954.37M861.79 502.35V599.115M954.37 502.35H1046.95M954.37 502.35V599.115M1046.95 502.35H1139.53M1046.95 502.35V599.115M1139.53 502.35H1232.11M1139.53 502.35V599.115M1232.11 502.35H1324.69M1232.11 502.35V599.115M1324.69 502.35V599.115M28.579 599.115H-64M28.579 599.115H121.158M28.579 599.115V695.879M-64 599.115V695.879M121.158 599.115H213.737M121.158 599.115V695.879M213.737 599.115H306.316M213.737 599.115V695.879M306.316 599.115H398.895M306.316 599.115V695.879M398.895 599.115H491.474M398.895 599.115V695.879M491.474 599.115H584.053M491.474 599.115V695.879M584.053 599.115H676.632M584.053 599.115V695.879M676.632 599.115H769.211M676.632 599.115V695.879M769.211 599.115H861.79M769.211 599.115V695.879M861.79 599.115H954.37M861.79 599.115V695.879M954.37 599.115H1046.95M954.37 599.115V695.879M1046.95 599.115H1139.53M1046.95 599.115V695.879M1139.53 599.115H1232.11M1139.53 599.115V695.879M1232.11 599.115H1324.69M1232.11 599.115V695.879M1324.69 599.115V695.879M28.579 695.879H-64M28.579 695.879H121.158M28.579 695.879V792.643M-64 695.879V792.643M121.158 695.879H213.737M121.158 695.879V792.643M213.737 695.879H306.316M213.737 695.879V792.643M306.316 695.879H398.895M306.316 695.879V792.643M398.895 695.879H491.474M398.895 695.879V792.643M491.474 695.879H584.053M491.474 695.879V792.643M584.053 695.879H676.632M584.053 695.879V792.643M676.632 695.879H769.211M676.632 695.879V792.643M769.211 695.879H861.79M769.211 695.879V792.643M861.79 695.879H954.37M861.79 695.879V792.643M954.37 695.879H1046.95M954.37 695.879V792.643M1046.95 695.879H1139.53M1046.95 695.879V792.643M1139.53 695.879H1232.11M1139.53 695.879V792.643M1232.11 695.879H1324.69M1232.11 695.879V792.643M1324.69 695.879V792.643M28.579 792.643H-64M28.579 792.643H121.158M28.579 792.643V889.408M-64 792.643V889.408M121.158 792.643H213.737M121.158 792.643V889.408M213.737 792.643H306.316M213.737 792.643V889.408M306.316 792.643H398.895M306.316 792.643V889.408M398.895 792.643H491.474M398.895 792.643V889.408M491.474 792.643H584.053M491.474 792.643V889.408M584.053 792.643H676.632M584.053 792.643V889.408M676.632 792.643H769.211M676.632 792.643V889.408M769.211 792.643H861.79M769.211 792.643V889.408M861.79 792.643H954.37M861.79 792.643V889.408M954.37 792.643H1046.95M954.37 792.643V889.408M1046.95 792.643H1139.53M1046.95 792.643V889.408M1139.53 792.643H1232.11M1139.53 792.643V889.408M1232.11 792.643H1324.69M1232.11 792.643V889.408M1324.69 792.643V889.408M28.579 889.408H-64M28.579 889.408H121.158M28.579 889.408V986.172M-64 889.408V986.172M121.158 889.408H213.737M121.158 889.408V986.172M213.737 889.408H306.316M213.737 889.408V986.172M306.316 889.408H398.895M306.316 889.408V986.172M398.895 889.408H491.474M398.895 889.408V986.172M491.474 889.408H584.053M491.474 889.408V986.172M584.053 889.408H676.632M584.053 889.408V986.172M676.632 889.408H769.211M676.632 889.408V986.172M769.211 889.408H861.79M769.211 889.408V986.172M861.79 889.408H954.37M861.79 889.408V986.172M954.37 889.408H1046.95M954.37 889.408V986.172M1046.95 889.408H1139.53M1046.95 889.408V986.172M1139.53 889.408H1232.11M1139.53 889.408V986.172M1232.11 889.408H1324.69M1232.11 889.408V986.172M1324.69 889.408V986.172M28.579 986.172H-64M28.579 986.172H121.158M28.579 986.172V1082.94M-64 986.172V1082.94M121.158 986.172H213.737M121.158 986.172V1082.94M213.737 986.172H306.316M213.737 986.172V1082.94M306.316 986.172H398.895M306.316 986.172V1082.94M398.895 986.172H491.474M398.895 986.172V1082.94M491.474 986.172H584.053M491.474 986.172V1082.94M584.053 986.172H676.632M584.053 986.172V1082.94M676.632 986.172H769.211M676.632 986.172V1082.94M769.211 986.172H861.79M769.211 986.172V1082.94M861.79 986.172H954.37M861.79 986.172V1082.94M954.37 986.172H1046.95M954.37 986.172V1082.94M1046.95 986.172H1139.53M1046.95 986.172V1082.94M1139.53 986.172H1232.11M1139.53 986.172V1082.94M1232.11 986.172H1324.69M1232.11 986.172V1082.94M1324.69 986.172V1082.94M28.579 1082.94H-64M28.579 1082.94H121.158M28.579 1082.94V1179.7M-64 1082.94V1179.7M121.158 1082.94H213.737M121.158 1082.94V1179.7M213.737 1082.94H306.316M213.737 1082.94V1179.7M306.316 1082.94H398.895M306.316 1082.94V1179.7M398.895 1082.94H491.474M398.895 1082.94V1179.7M491.474 1082.94H584.053M491.474 1082.94V1179.7M584.053 1082.94H676.632M584.053 1082.94V1179.7M676.632 1082.94H769.211M676.632 1082.94V1179.7M769.211 1082.94H861.79M769.211 1082.94V1179.7M861.79 1082.94H954.37M861.79 1082.94V1179.7M954.37 1082.94H1046.95M954.37 1082.94V1179.7M1046.95 1082.94H1139.53M1046.95 1082.94V1179.7M1139.53 1082.94H1232.11M1139.53 1082.94V1179.7M1232.11 1082.94H1324.69M1232.11 1082.94V1179.7M1324.69 1082.94V1179.7M28.579 1179.7H-64M28.579 1179.7H121.158M28.579 1179.7V1276.47M-64 1179.7V1276.47H28.579M121.158 1179.7H213.737M121.158 1179.7V1276.47M213.737 1179.7H306.316M213.737 1179.7V1276.47M306.316 1179.7H398.895M306.316 1179.7V1276.47M398.895 1179.7H491.474M398.895 1179.7V1276.47M491.474 1179.7H584.053M491.474 1179.7V1276.47M584.053 1179.7H676.632M584.053 1179.7V1276.47M676.632 1179.7H769.211M676.632 1179.7V1276.47M769.211 1179.7H861.79M769.211 1179.7V1276.47M861.79 1179.7H954.37M861.79 1179.7V1276.47M954.37 1179.7H1046.95M954.37 1179.7V1276.47M1046.95 1179.7H1139.53M1046.95 1179.7V1276.47M1139.53 1179.7H1232.11M1139.53 1179.7V1276.47M1232.11 1179.7H1324.69M1232.11 1179.7V1276.47M1324.69 1179.7V1276.47H1232.11M28.579 1276.47H121.158M121.158 1276.47H213.737M213.737 1276.47H306.316M306.316 1276.47H398.895M398.895 1276.47H491.474M491.474 1276.47H584.053M584.053 1276.47H676.632M676.632 1276.47H769.211M769.211 1276.47H861.79M861.79 1276.47H954.37M954.37 1276.47H1046.95M1046.95 1276.47H1139.53M1139.53 1276.47H1232.11" stroke="url(#paint0_radial_2001_15)" stroke-opacity="0.2"/>
<defs>
<radialGradient id="paint0_radial_2001_15" cx="0" cy="0" r="1" gradientUnits="userSpaceOnUse" gradientTransform="translate(631.117 551.338) rotate(90) scale(513.94 491.711)">
<stop stop-color="white"/>
<stop offset="1" stop-color="white" stop-opacity="0"/>
</radialGradient>
</defs>
</svg>
